<svg width="53" height="97" viewBox="0 0 53 97" fill="none" xmlns="http://www.w3.org/2000/svg">
<path d="M50.0889 0.02L37.6239 0C23.6199 0 14.5699 9.285 14.5699 23.656V34.563H2.03691C0.953905 34.563 0.0769043 35.441 0.0769043 36.524V52.327C0.0769043 53.41 0.954905 54.287 2.03691 54.287H14.5699V94.163C14.5699 95.246 15.4469 96.123 16.5299 96.123H32.8819C33.9649 96.123 34.8419 95.245 34.8419 94.163V54.287H49.4959C50.5789 54.287 51.4559 53.41 51.4559 52.327L51.4619 36.524C51.4619 36.004 51.2549 35.506 50.8879 35.138C50.5209 34.77 50.0209 34.563 49.5009 34.563H34.8419V25.317C34.8419 20.873 35.9009 18.617 41.6899 18.617L50.0869 18.614C51.1689 18.614 52.0459 17.736 52.0459 16.654V1.98C52.0459 0.899 51.1699 0.022 50.0889 0.02Z" fill="#ADADAD"/>
</svg>
