<svg width="660" height="668" viewBox="0 0 660 668" fill="none" xmlns="http://www.w3.org/2000/svg">
<path fill-rule="evenodd" clip-rule="evenodd" d="M311.806 406.868C353.006 446.945 406.291 466.983 471.661 466.983C508.741 466.983 542.525 459.984 573.013 445.984C603.5 431.71 627.671 411.946 645.524 386.692L587.021 321.224C561.202 354.438 525.358 371.046 479.489 371.046C449.825 371.046 425.243 362.262 405.742 344.694C386.677 327.274 375.174 304.186 371.233 275.43H375.611H655V263.209V226.11C655 155.563 637.421 101.075 602.264 62.645C567.382 24.215 519.453 5 458.477 5C417.827 5 381.571 14.6075 349.71 33.8225C318.124 52.763 293.679 79.9385 276.375 115.349C266.426 135.55 259.337 157.339 255.109 180.716H199.839V67.0728H73.8692V169.228H73.8901V175.338V180.716H5.04329V193.67H5V275.299H73.8692V529.265C75.6127 618.422 120.654 663 208.992 663C235.145 663 260.572 659.225 285.271 651.674V556.273C274.52 558.306 262.17 559.323 248.222 559.323C229.333 559.323 216.548 555.547 209.864 547.996C203.181 540.446 199.839 527.958 199.839 510.533V275.299H251.75C256.889 328.836 276.908 372.692 311.806 406.868ZM400.386 125.231C388.01 138.766 379.406 157.261 374.574 180.716H537.884C536.812 156.008 529.706 136.827 516.569 123.172C502.836 108.624 483.335 101.349 458.065 101.349C434.444 101.349 415.218 109.31 400.386 125.231Z" fill="#C0C0C0" stroke="#B6B6B6" stroke-width="9"/>
</svg>
